<?xml version="1.0" standalone="no"?>
<!DOCTYPE svg PUBLIC "-//W3C//DTD SVG 20010904//EN"
 "http://www.w3.org/TR/2001/REC-SVG-20010904/DTD/svg10.dtd">
<svg version="1.0" xmlns="http://www.w3.org/2000/svg"
 width="225.000000pt" height="225.000000pt" viewBox="0 0 225.000000 225.000000"
 preserveAspectRatio="xMidYMid meet">

<g transform="translate(0.000000,225.000000) scale(0.100000,-0.100000)"
fill="#000000" stroke="none">
<path d="M655 1410 c0 -212 1 -298 2 -193 2 106 2 280 0 385 -1 106 -2 20 -2
-192z"/>
<path d="M672 1428 c0 -200 2 -371 4 -380 8 -27 27 -22 91 23 32 22 78 49 103
61 39 18 42 21 25 28 -15 6 -16 9 -4 9 14 1 24 31 10 31 -3 0 -6 75 -6 168 0
92 -2 224 -5 294 l-5 128 -107 0 -106 0 0 -362z"/>
<path d="M1033 1743 c24 -6 21 -19 -5 -28 -13 -3 -18 -9 -11 -11 7 -3 10 -11
8 -17 -2 -7 -9 -106 -16 -222 -6 -115 -12 -228 -13 -250 -2 -34 -6 -40 -24
-39 -12 0 -22 -2 -22 -5 0 -11 322 -11 420 -1 52 6 124 18 160 27 114 28 240
102 303 178 l25 30 -107 0 c-106 0 -109 1 -192 42 -46 23 -131 75 -189 115
-175 123 -297 190 -338 187 -15 -1 -15 -2 1 -6z"/>
</g>
</svg>
